<svg width="45" height="17" viewBox="0 0 45 17" fill="none" xmlns="http://www.w3.org/2000/svg">
<g id="Combined Shape 2 1" clip-path="url(#clip0_2_118)">
<g id="Hifi">
<g id="P9728   Tablet">
<g id="Group 8">
<g id="Group 7">
<g id="Combined Shape 2">
<g id="Group">
<path id="Combined Shape" d="M7.54888 9.58956C7.65354 9.58913 7.75484 9.59322 7.8525 9.6017L7.86246 9.59509C7.98803 9.61198 8.23772 9.64503 8.46854 9.71993C8.70081 9.79336 8.9113 9.90865 9.07534 10.0269C9.23503 10.1444 9.35116 10.2663 9.42375 10.4146C9.49633 10.5629 9.53262 10.7392 9.5544 11.0278C9.56891 11.3171 9.56891 11.718 9.50359 12.467C9.43826 13.2138 9.30761 14.3087 9.20599 15.01C9.10438 15.7149 9.03179 16.0234 8.93743 16.251C8.84307 16.486 8.71968 16.6402 8.58177 16.7503C8.44386 16.8605 8.28418 16.9266 8.13175 16.9633C7.97932 17 7.84141 17 7.71076 17C7.58011 17 7.45672 17 7.28978 16.9633C7.12283 16.9266 6.90508 16.8605 6.74539 16.7283C6.67516 16.6727 6.61521 16.6067 6.56283 16.5303C6.2831 16.2406 6.15988 15.6959 5.97463 14.3917C5.66769 12.2326 5.60084 10.8961 5.77839 10.4728C6.01417 9.91167 6.65393 9.59323 7.54888 9.58956ZM7.55679 0C9.65579 0 11.5535 0.821236 12.9984 2.35659C14.0982 3.51521 14.7164 4.7416 15.0327 6.35711C15.1405 6.89488 15.1405 8.36101 15.0399 8.96583C14.7092 10.8779 13.6597 12.6195 12.1286 13.7898C11.5823 14.208 10.2452 14.9382 10.0296 14.9382C9.95051 14.9382 9.94332 14.8551 9.97926 14.5192C10.044 13.98 10.1087 13.8677 10.4106 13.7395C10.8922 13.5355 11.7117 12.9438 12.2148 12.4322C13.0846 11.5578 13.7244 10.4137 14.0191 9.2114C14.206 8.46084 14.1844 6.79214 13.976 6.01973C13.3218 3.56403 11.345 1.65486 8.92257 1.14478C8.21812 0.999037 6.93859 0.999037 6.22694 1.14478C3.77572 1.65486 1.74861 3.65876 1.13041 6.18004C0.965076 6.86501 0.965076 8.53371 1.13041 9.21868C1.54014 10.8874 2.60402 12.4176 3.99856 13.3285C4.27171 13.5107 4.60238 13.7001 4.73896 13.7584C5.04087 13.8896 5.10556 13.9989 5.16307 14.5381C5.19901 14.866 5.19182 14.9608 5.11275 14.9608C5.06243 14.9608 4.69583 14.8005 4.30766 14.611L4.27172 14.584C2.05052 13.4764 0.627224 11.6022 0.109663 9.10865C-0.0197275 8.46522 -0.0412925 6.92986 0.0809094 6.33962C0.404385 4.75472 1.02258 3.51521 2.05052 2.41926C3.53132 0.836538 5.43623 0 7.55679 0ZM24.5071 10.1525C25.598 10.1525 26.2673 10.8857 26.2673 12.093C26.2673 13.3038 25.6013 14.0336 24.5071 14.0336C23.4095 14.0336 22.7469 13.3038 22.7469 12.093C22.7469 10.8891 23.4195 10.1525 24.5071 10.1525ZM40.7569 10.1525C41.6269 10.1525 42.1724 10.5447 42.2326 11.2234H41.4529C41.3927 10.9607 41.1484 10.7936 40.7602 10.7936C40.3821 10.7936 40.0976 10.9778 40.0976 11.2472C40.0976 11.4587 40.2716 11.5883 40.6397 11.6735L41.2856 11.8236C41.985 11.9839 42.3096 12.2908 42.3096 12.8399C42.3096 13.5561 41.6637 14.0336 40.7502 14.0336C39.8366 14.0336 39.261 13.6312 39.1975 12.9525H40.0173C40.0976 13.2287 40.3553 13.3924 40.7702 13.3924C41.1885 13.3924 41.4797 13.2049 41.4797 12.9286C41.4797 12.7172 41.3224 12.5841 40.9744 12.5057L40.3252 12.3522C39.6225 12.1885 39.2912 11.8577 39.2912 11.295C39.2912 10.6197 39.8935 10.1525 40.7569 10.1525ZM33.0402 10.1525C33.9805 10.1525 34.5494 10.6981 34.6364 11.4826H33.8467C33.7697 11.121 33.4953 10.8618 33.0402 10.8618C32.4713 10.8618 32.1334 11.3086 32.1334 12.0828C32.1334 12.8672 32.4747 13.3242 33.0402 13.3242C33.4719 13.3242 33.7597 13.1162 33.8467 12.7274H34.6364C34.5461 13.5084 33.9705 14.0336 33.0436 14.0336C31.9426 14.0336 31.2934 13.3106 31.2934 12.0828C31.2934 10.8721 31.9393 10.1525 33.0402 10.1525ZM36.9086 10.1525C37.8489 10.1525 38.3776 10.6197 38.3776 11.4109V13.9586H37.5778V13.447H37.521C37.3168 13.8085 36.9153 14.02 36.4367 14.02C35.7307 14.02 35.2254 13.5834 35.2254 12.9013C35.2254 12.226 35.724 11.8372 36.6141 11.7827L37.5578 11.7247V11.4109C37.5578 11.046 37.3168 10.8414 36.8684 10.8414C36.4869 10.8414 36.2259 10.9778 36.149 11.2302H35.3659C35.4328 10.5719 36.0385 10.1525 36.9086 10.1525ZM30.4267 8.78484V13.9586H29.6236V13.3686H29.5667C29.3593 13.7778 28.9376 14.02 28.429 14.02C27.5021 14.02 26.9231 13.2765 26.9231 12.0896C26.9231 10.9096 27.5054 10.1661 28.429 10.1661C28.9309 10.1661 29.3459 10.4117 29.54 10.8209H29.5969V8.78484H30.4267ZM44.217 9.31347V10.2514H45V10.9266H44.217V12.7581C44.217 13.1264 44.3709 13.2901 44.7189 13.2901C44.836 13.2901 44.8996 13.2833 45 13.2731V13.9347C44.8795 13.9586 44.7256 13.9756 44.565 13.9756C43.7251 13.9756 43.3904 13.6857 43.3904 12.9627V10.9266H42.8115V10.2514H43.3904V9.31347H44.217ZM20.5417 9.03722C21.5054 9.03722 22.1647 9.70909 22.1647 10.7015C22.1647 11.677 21.482 12.3454 20.5049 12.3454H19.4575V13.9586H18.5941V9.03722H20.5417ZM37.5578 12.2943L36.7312 12.3488C36.2661 12.3795 36.0486 12.55 36.0486 12.8536C36.0486 13.1673 36.3129 13.3549 36.681 13.3549C37.183 13.3549 37.5578 13.0241 37.5578 12.591V12.2943ZM24.5071 10.8618C23.9282 10.8618 23.5969 11.3154 23.5969 12.093C23.5969 12.874 23.9282 13.3242 24.5071 13.3242C25.086 13.3242 25.4139 12.874 25.4139 12.093C25.4139 11.3154 25.0827 10.8618 24.5071 10.8618ZM28.6867 10.8857C28.1211 10.8857 27.7731 11.3427 27.7731 12.093C27.7731 12.8468 28.1178 13.3004 28.6867 13.3004C29.2589 13.3004 29.6069 12.8433 29.6069 12.093C29.6069 11.3495 29.2555 10.8857 28.6867 10.8857ZM8.67098 2.65608C11.1725 3.22082 12.948 5.76031 12.603 8.2794C12.4664 9.29447 12.1214 10.1281 11.5104 10.9027C11.2085 11.294 10.4753 11.9506 10.3459 11.9506C10.3263 11.9506 10.3067 11.7458 10.3033 11.4819L10.3027 10.8502L10.6765 10.3984C12.0854 8.68747 11.9848 6.29736 10.4465 4.72921C9.84987 4.11857 9.15979 3.76005 8.26843 3.59464C7.69337 3.48679 7.57117 3.48679 6.96734 3.58735C6.05083 3.73892 5.34062 4.09889 4.7102 4.7314C3.16471 6.28351 3.06407 8.68601 4.47299 10.3984L4.84391 10.8502V11.404C4.84391 11.7101 4.82019 11.9578 4.79071 11.9578C4.76196 11.9578 4.5535 11.8121 4.33066 11.6299L4.30047 11.6197C3.55288 11.0149 2.89155 9.94228 2.6184 8.89004C2.45306 8.25462 2.45306 7.04645 2.62558 6.41249C3.07845 4.70152 4.32203 3.3753 6.04724 2.75227C6.63668 2.54095 7.94496 2.49358 8.67098 2.65608ZM20.3141 9.77389H19.4575V11.6156H20.3108C20.9265 11.6156 21.2879 11.2882 21.2879 10.7015C21.2879 10.0979 20.9366 9.77389 20.3141 9.77389ZM8.31875 5.44479C8.9893 5.71553 9.45939 6.37417 9.45939 7.14417C9.45939 8.15218 8.6538 8.96933 7.66005 8.96933C7.00897 8.96933 6.43866 8.61856 6.12276 8.09317L6.09193 8.05078C5.90514 7.76892 5.80664 7.4246 5.80283 7.03188C5.80283 6.36513 6.16944 5.78363 6.80201 5.44333C7.20456 5.22909 7.91621 5.22909 8.31875 5.44479ZM29.7106 3.18137C30.6376 3.18137 31.2198 3.91122 31.2198 5.10831C31.2198 6.29858 30.6443 7.03525 29.7207 7.03525C29.1953 7.03525 28.7904 6.80333 28.603 6.40772H28.5461V8.21529H27.7162V3.24276H28.516V3.86007H28.5729C28.7837 3.43716 29.2087 3.18137 29.7106 3.18137ZM25.3738 3.18137C26.3007 3.18137 26.883 3.91122 26.883 5.10831C26.883 6.29858 26.3074 7.03525 25.3838 7.03525C24.8585 7.03525 24.4535 6.80333 24.2662 6.40772H24.2093V8.21529H23.3794V3.24276H24.1791V3.86007H24.236C24.4469 3.43716 24.8718 3.18137 25.3738 3.18137ZM35.5031 3.16773C36.5472 3.16773 37.1729 3.87371 37.1729 5.05033V5.32317H34.6163V5.36751C34.6364 5.98822 34.9878 6.37702 35.5332 6.37702C35.9448 6.37702 36.2293 6.22355 36.3497 5.9473H37.1361C36.9855 6.62599 36.3732 7.04889 35.5098 7.04889C34.4323 7.04889 33.7831 6.32245 33.7831 5.12195C33.7831 3.92146 34.4423 3.16773 35.5031 3.16773ZM32.9164 1.80012V6.97386H32.0865V1.80012H32.9164ZM20.9198 2.0525L22.6365 6.97386H21.7096L21.3013 5.71538H19.5244L19.1095 6.97386H18.2361L19.9494 2.0525H20.9198ZM25.1161 3.90099C24.5506 3.90099 24.1959 4.36482 24.1925 5.10831C24.1959 5.85521 24.5472 6.31563 25.1128 6.31563C25.6883 6.31563 26.0297 5.86203 26.0297 5.10831C26.0297 4.35459 25.685 3.90099 25.1161 3.90099ZM29.453 3.90099C28.8874 3.90099 28.5327 4.36482 28.5294 5.10831C28.5327 5.85521 28.8841 6.31563 29.4496 6.31563C30.0252 6.31563 30.3665 5.86203 30.3665 5.10831C30.3665 4.35459 30.0218 3.90099 29.453 3.90099ZM20.4446 2.99039H20.3878L19.7252 5.01964H21.1005L20.4446 2.99039ZM35.4998 3.8396C35.0045 3.8396 34.6565 4.20112 34.6197 4.7468H36.3431C36.3263 4.1943 35.9984 3.8396 35.4998 3.8396Z" fill="#5A668A"/>
</g>
</g>
</g>
</g>
</g>
</g>
</g>
<defs>
<clipPath id="clip0_2_118">
<rect width="45" height="17" fill="white"/>
</clipPath>
</defs>
</svg>
