<svg width="56" height="17" viewBox="0 0 56 17" fill="none" xmlns="http://www.w3.org/2000/svg">
<g id="Spotify_logo_with_text">
<path id="Shape" fill-rule="evenodd" clip-rule="evenodd" d="M8.41467 0.0280304C3.7815 0.0280304 0.0253906 3.82197 0.0253906 8.50192C0.0253906 13.1821 3.7815 16.9757 8.41467 16.9757C13.0483 16.9757 16.8041 13.1821 16.8041 8.50192C16.8041 3.82227 13.0483 0.0284352 8.41457 0.0284352L8.41467 0.0280304ZM12.2619 12.2498C12.1117 12.4987 11.7891 12.5777 11.5427 12.4249C9.57294 11.2096 7.09331 10.9343 4.1731 11.6083C3.89169 11.673 3.61119 11.4949 3.54708 11.2106C3.48266 10.9262 3.65828 10.6429 3.94038 10.5781C7.13609 9.84067 9.87728 10.1582 12.0886 11.5233C12.3351 11.6761 12.4132 12.0009 12.2619 12.2498ZM12.3892 10.1602C12.6967 10.3515 13.0994 10.2533 13.2888 9.94247V9.94257C13.4781 9.63232 13.3809 9.22554 13.0734 9.03429C10.4838 7.42688 6.6961 6.97455 3.64936 7.90834C3.30405 8.01459 3.109 8.38292 3.21318 8.73233C3.31817 9.08114 3.68352 9.27805 4.02944 9.17251C6.6967 8.35469 10.1341 8.76016 12.3892 10.1602ZM13.3769 7.5398C10.6731 5.91762 6.21214 5.76847 3.63063 6.55988C3.21609 6.68687 2.77771 6.45049 2.65208 6.03176C2.52646 5.61283 2.76027 5.17033 3.17512 5.04303C6.13851 4.13434 11.0648 4.30991 14.1778 6.17657C14.5514 6.4001 14.6736 6.88652 14.4523 7.26264C14.2319 7.63927 13.749 7.76344 13.3773 7.5398H13.3769ZM21.1438 6.74232C21.1438 7.25688 21.4013 7.50176 22.8498 7.85066L22.8529 7.85198C24.617 8.28548 25.3373 8.95839 25.3343 10.1734C25.3343 11.6133 24.2453 12.5433 22.5603 12.5433C21.3682 12.5433 20.2642 12.1162 19.3666 11.3067C19.3286 11.2723 19.3246 11.2136 19.3576 11.1731L20.151 10.2199C20.1671 10.2007 20.1901 10.1886 20.2161 10.1865C20.2402 10.1855 20.2662 10.1926 20.2853 10.2098C21.0566 10.8837 21.7469 11.1721 22.5924 11.1721C23.3537 11.1721 23.8266 10.8392 23.8266 10.3039C23.8266 9.82104 23.5922 9.55086 22.2067 9.22837C20.5778 8.83079 19.6351 8.31573 19.6351 6.86112C19.6351 5.50466 20.7281 4.55661 22.2919 4.55661C23.3558 4.55661 24.2654 4.87505 25.0738 5.53006C25.1129 5.56173 25.1209 5.61891 25.0919 5.66039L24.3846 6.66744C24.3696 6.68859 24.3475 6.70266 24.3215 6.7065C24.2964 6.71055 24.2704 6.70438 24.2503 6.68889C23.5711 6.17748 22.924 5.92905 22.2708 5.92905C21.5966 5.92905 21.1438 6.2562 21.1438 6.74232ZM29.1471 6.40769C28.4168 6.40769 27.8177 6.6983 27.3228 7.29381V6.62352C27.3228 6.5706 27.2808 6.52749 27.2287 6.52749H25.9314C25.8793 6.52749 25.8372 6.5706 25.8372 6.62352V14.0712C25.8372 14.1239 25.8793 14.1674 25.9314 14.1674H27.2287C27.2808 14.1674 27.3228 14.1239 27.3228 14.0712V11.7206C27.8177 12.2802 28.4168 12.5544 29.1471 12.5544C30.5045 12.5544 31.879 11.499 31.879 9.48135C31.881 7.4633 30.5065 6.40758 29.1481 6.40758L29.1471 6.40769ZM28.8466 11.2258C29.7442 11.2258 30.3703 10.5083 30.3703 9.48135V9.48125C30.3703 8.47035 29.7291 7.73692 28.8466 7.73702C27.96 7.73702 27.2908 8.48664 27.2908 9.48135C27.2908 10.4759 27.96 11.2258 28.8466 11.2258ZM35.4003 6.40769C33.6521 6.40769 32.2827 7.76728 32.2827 9.5033C32.2827 11.2207 33.6431 12.5655 35.3792 12.5655C37.1334 12.5655 38.5068 11.2106 38.5068 9.48135C38.5068 7.75797 37.1424 6.40789 35.4003 6.40789V6.40769ZM33.7693 9.48084C33.7693 10.481 34.4706 11.2359 35.4003 11.2359C36.3389 11.2359 37.0202 10.5073 37.0202 9.5028C37.0202 8.50162 36.3149 7.74704 35.3792 7.74704C34.4466 7.74704 33.7693 8.47612 33.7693 9.48084ZM42.2395 6.52749H40.8119V5.05355C40.8119 5.00073 40.7698 4.95763 40.7178 4.95763H39.4204C39.3683 4.95763 39.3253 5.00073 39.3253 5.05355V6.52749H38.7022C38.6501 6.52749 38.608 6.5706 38.608 6.62352V7.74947C38.608 7.80229 38.6501 7.8455 38.7022 7.8455H39.3253V10.7593C39.3253 11.9361 39.9053 12.5331 41.0503 12.5331C41.5152 12.5331 41.9009 12.436 42.2645 12.2276C42.2946 12.2114 42.3126 12.179 42.3126 12.1446V11.072C42.3126 11.0396 42.2956 11.0082 42.2675 10.991C42.2395 10.9728 42.2044 10.9718 42.1754 10.987C41.9259 11.1134 41.6845 11.1721 41.414 11.1721C40.9983 11.1721 40.8119 10.9809 40.8119 10.5539V7.84601H42.2395C42.2916 7.84601 42.3336 7.8029 42.3336 7.74998V6.62413C42.3356 6.57121 42.2936 6.5281 42.2405 6.5281L42.2395 6.52749ZM47.2124 6.35223V6.53326V6.53357H49.4283C49.4674 6.53357 49.5024 6.55816 49.5165 6.59529L51.0312 10.5883L52.4146 6.59792C52.4277 6.55957 52.4637 6.53357 52.5048 6.53357H53.8552C53.8863 6.53357 53.9153 6.54925 53.9324 6.57526C53.9504 6.60146 53.9544 6.63486 53.9424 6.66441L51.6924 12.5372C51.2265 13.7495 50.6966 14.2008 49.7389 14.2008C49.227 14.2008 48.8132 14.0935 48.3544 13.8426C48.3103 13.8183 48.2923 13.7646 48.3133 13.7181L48.7531 12.7436C48.7631 12.7193 48.7842 12.7011 48.8092 12.692C48.8332 12.6849 48.8613 12.687 48.8843 12.6991C49.1298 12.8357 49.3712 12.9045 49.5996 12.9045C49.8821 12.9045 50.0895 12.8104 50.2999 12.3389L48.4446 7.8458H47.2334V12.3389C47.2334 12.3925 47.1913 12.435 47.1382 12.435H45.8419C45.7898 12.435 45.7467 12.3925 45.7467 12.3389V7.8455H45.1236C45.0715 7.8455 45.0285 7.80229 45.0285 7.74947V6.61776C45.0285 6.56494 45.0715 6.52183 45.1236 6.52183H45.7467V6.24457C45.7467 4.95611 46.3809 4.27469 47.578 4.27469C48.0709 4.27469 48.3995 4.35392 48.6559 4.43113C48.697 4.44358 48.7231 4.48092 48.7231 4.52311V5.6271C48.7231 5.65786 48.709 5.68691 48.684 5.70502C48.6599 5.72313 48.6289 5.72789 48.5988 5.71838C48.3554 5.63641 48.138 5.58217 47.8675 5.58217C47.4147 5.58217 47.2124 5.81967 47.2124 6.35223ZM44.3292 6.52749H43.0319C42.9798 6.52749 42.9367 6.5706 42.9367 6.62352V12.3389C42.9367 12.3925 42.9798 12.435 43.0319 12.435H44.3292C44.3813 12.435 44.4244 12.3925 44.4244 12.3389V6.62393C44.4244 6.57101 44.3823 6.5279 44.3292 6.5279V6.52749ZM42.7574 4.86413C42.7574 4.34512 43.1741 3.92498 43.6881 3.92498C44.201 3.92498 44.6177 4.34522 44.6177 4.86413C44.6177 5.38344 44.202 5.80408 43.6881 5.80408C43.1741 5.80408 42.7574 5.38344 42.7574 4.86413ZM55.0503 8.36522C54.5374 8.36522 54.1377 7.94882 54.1377 7.44317C54.1377 6.93752 54.5424 6.51636 55.0554 6.51636C55.5683 6.51636 55.968 6.93266 55.968 7.43791C55.968 7.94355 55.5633 8.36522 55.0503 8.36522ZM54.2339 7.44317C54.2339 6.98346 54.5875 6.60804 55.0554 6.60804C55.5202 6.60804 55.8718 6.9784 55.8718 7.43791C55.8718 7.89792 55.5182 8.27303 55.0504 8.27303C54.5855 8.27303 54.2339 7.90267 54.2339 7.44317ZM55.2577 7.53272L55.5162 7.89782H55.2978L55.0654 7.56288H54.866V7.89782H54.6837V6.93003H55.1105C55.3339 6.93003 55.4801 7.04508 55.4801 7.23876C55.4811 7.39743 55.39 7.49437 55.2587 7.53272H55.2577ZM54.866 7.09608H55.1034C55.2217 7.09608 55.2928 7.14941 55.2928 7.24898C55.2928 7.3436 55.2217 7.40219 55.1034 7.40219H54.866V7.09608Z" fill="#5A668A"/>
</g>
</svg>
