<svg width="135" height="56" viewBox="0 0 135 56" fill="none" xmlns="http://www.w3.org/2000/svg">
<g clip-path="url(#clip0_2_54)">
<path fill-rule="evenodd" clip-rule="evenodd" d="M28 0C43.464 0 56 12.536 56 28C56 43.464 43.464 56 28 56C12.536 56 0 43.464 0 28C0 12.536 12.536 0 28 0ZM23.1998 13.8272C21.6654 13.8272 20.442 14.8752 20.2212 16.3799L17.876 32.6607C17.865 32.7356 17.8359 32.9344 17.5568 32.9467C17.2871 32.958 17.2343 32.7754 17.2152 32.697L16.458 29.3574C16.4568 29.3522 16.4557 29.3472 16.4544 29.342C15.9623 27.2861 14.1169 25.7938 12.0664 25.7938C11.3206 25.7938 10.716 26.3925 10.716 27.1309C10.716 27.8694 11.3206 28.468 12.0664 28.468C12.8643 28.468 13.6192 29.1054 13.8249 29.9519L14.5821 33.291C14.5832 33.2962 14.5843 33.3012 14.5856 33.3064C14.9269 34.7323 16.1976 35.6829 17.6762 35.6182C19.1547 35.5535 20.3359 34.4954 20.5491 33.0418L22.8943 16.761C22.9066 16.6767 22.9323 16.5013 23.1972 16.5013L23.2863 16.509C23.469 16.5439 23.4899 16.6875 23.5004 16.7605L26.7933 39.5725C27.0164 41.1101 28.2566 42.1728 29.8183 42.1728L29.8696 42.1725C31.4554 42.1489 32.6874 41.0426 32.8658 39.4813L33.3252 35.4365C33.4086 34.7026 32.8754 34.0408 32.1343 33.9583C31.3933 33.8756 30.7249 34.4037 30.6415 35.1376L30.1822 39.1816C30.1724 39.267 30.1465 39.4939 29.8291 39.4987C29.5144 39.5051 29.4788 39.2773 29.4666 39.1931L26.1738 16.3812C25.9558 14.8786 24.7329 13.8284 23.1998 13.8272ZM34.4015 22.9856C33.0027 23.0219 31.9158 24.0089 31.7585 25.3858L31.1867 30.3901C31.1029 31.1238 31.6356 31.786 32.3767 31.869C33.1179 31.9521 33.7864 31.4245 33.8703 30.6907L34.4421 25.6864C34.4433 25.6763 34.4446 25.6681 34.446 25.6617C34.462 25.6582 34.4832 25.6576 34.4993 25.6603C34.5008 25.6659 34.5024 25.6728 34.5038 25.6812L35.5636 32.0821C35.7923 33.4413 36.9232 34.4283 38.3137 34.4824C38.3536 34.4839 38.3933 34.4847 38.4328 34.4847C39.7725 34.4847 40.9193 33.602 41.2454 32.3031L41.2494 32.2873L41.7262 30.2839C41.9895 29.2481 42.9373 28.468 43.9336 28.468C44.6794 28.468 45.284 27.8694 45.284 27.1309C45.284 26.3925 44.6794 25.7938 43.9336 25.7938C41.6952 25.7938 39.6638 27.4138 39.1035 29.6457L39.0995 29.6616L38.6227 31.6655C38.6066 31.7285 38.578 31.8161 38.4196 31.8104C38.2545 31.8039 38.2382 31.7068 38.2279 31.646L37.1682 25.2451C36.9381 23.8784 35.801 22.9485 34.4015 22.9856Z" fill="#54E6AF"/>
</g>
<path fill-rule="evenodd" clip-rule="evenodd" d="M124.014 38.8871C126.334 38.8871 128.233 37.911 129.709 35.9588L130.302 38.4914H134.851V10H129.076V20.6051C128.496 19.8401 127.725 19.1938 126.763 18.6661C125.8 18.1385 124.686 17.8747 123.421 17.8747C121.944 17.8747 120.619 18.2572 119.446 19.0223C118.272 19.7873 117.343 20.9349 116.657 22.465C115.972 23.9951 115.629 25.8549 115.629 28.0446V28.4799C115.629 30.775 115.998 32.7008 116.736 34.2573C117.475 35.8138 118.477 36.9745 119.742 37.7396C121.008 38.5046 122.432 38.8871 124.014 38.8871ZM74.9707 36.1567V45.6538H69.1963V18.2704H73.7446L74.3379 20.803C75.8145 18.8508 77.7129 17.8747 80.0332 17.8747C81.6153 17.8747 83.0391 18.2572 84.3047 19.0223C85.5704 19.7873 86.5723 20.9481 87.3106 22.5046C88.0489 24.061 88.418 25.9869 88.418 28.282V28.7173C88.418 30.9069 88.0752 32.7668 87.3897 34.2969C86.7041 35.8269 85.7747 36.9745 84.6014 37.7396C83.428 38.5046 82.1031 38.8871 80.6265 38.8871C79.3609 38.8871 78.2468 38.6233 77.2844 38.0957C76.322 37.5681 75.5508 36.9218 74.9707 36.1567ZM76.0386 33.4461C76.7505 34.2771 77.6602 34.6926 78.7676 34.6926C79.875 34.6926 80.7847 34.2771 81.4966 33.4461C82.2085 32.6151 82.5645 31.4345 82.5645 29.9044V26.62C82.5645 25.0635 82.2085 23.8764 81.4966 23.0586C80.7847 22.2408 79.875 21.8319 78.7676 21.8319C77.6602 21.8319 76.7505 22.2408 76.0386 23.0586C75.3267 23.8764 74.9707 25.0635 74.9707 26.62V29.9044C74.9707 31.4345 75.3267 32.6151 76.0386 33.4461ZM102.34 38.8871C104.212 38.8871 105.9 38.4914 107.402 37.7C108.905 36.9086 110.085 35.761 110.942 34.2573C111.799 32.7536 112.228 30.986 112.228 28.9547V27.8071C112.228 25.7758 111.799 24.0083 110.942 22.5046C110.085 21.0009 108.905 19.8533 107.402 19.0619C105.9 18.2704 104.212 17.8747 102.34 17.8747H101.707C99.835 17.8747 98.1475 18.2704 96.6446 19.0619C95.1417 19.8533 93.9617 21.0009 93.1048 22.5046C92.2479 24.0083 91.8194 25.7758 91.8194 27.8071V28.9547C91.8194 30.986 92.2479 32.7536 93.1048 34.2573C93.9617 35.761 95.1417 36.9086 96.6446 37.7C98.1475 38.4914 99.835 38.8871 101.707 38.8871H102.34ZM98.8792 33.6637C99.6834 34.5079 100.732 34.93 102.024 34.93C103.316 34.93 104.364 34.5079 105.168 33.6637C105.972 32.8195 106.374 31.5928 106.374 29.9836V26.7783C106.374 25.169 105.972 23.9423 105.168 23.0981C104.364 22.2539 103.316 21.8319 102.024 21.8319C100.732 21.8319 99.6834 22.2539 98.8792 23.0981C98.075 23.9423 97.6729 25.169 97.6729 26.7783V29.9836C97.6729 31.5928 98.075 32.8195 98.8792 33.6637ZM122.55 33.6835C123.262 34.5145 124.172 34.93 125.279 34.93C126.387 34.93 127.297 34.5145 128.008 33.6835C128.72 32.8525 129.076 31.6719 129.076 30.1418V26.8574C129.076 25.3009 128.72 24.1138 128.008 23.296C127.297 22.4782 126.387 22.0693 125.279 22.0693C124.172 22.0693 123.262 22.4782 122.55 23.296C121.839 24.1138 121.483 25.3009 121.483 26.8574V30.1418C121.483 31.6719 121.839 32.8525 122.55 33.6835Z" fill="white"/>
<defs>
<clipPath id="clip0_2_54">
<rect width="56" height="56" fill="white"/>
</clipPath>
</defs>
</svg>
